<svg width="72" height="72" viewBox="0 0 72 72" fill="none" xmlns="http://www.w3.org/2000/svg">
<g clip-path="url(#clip0_30_103)">
<path fill-rule="evenodd" clip-rule="evenodd" d="M36.9501 51.5161L36.9517 51.5027C30.3463 42.6419 20.0979 36.7957 17.4536 25.196C15.9625 18.6556 18.2483 10.5649 22.8331 5.67346C25.8425 2.46343 30.7486 0.989966 35.055 0.99999C43.8132 1.02004 50.2633 6.57558 53.5181 14.5501C55.7832 20.0973 55.0736 25.5075 53.8873 31.2026C52.312 38.7653 49.5975 44.9239 44.1882 50.5146C43.5332 51.1911 40.2519 48.8907 40.1908 48.9542C50.2435 38.5657 55.2239 20.1266 46.4476 7.54452C44.2601 4.40715 42.0462 2.55948 37.5093 2.71652C35.3309 2.79086 33.5177 3.34132 31.4962 4.14153C25.1643 6.64658 21.627 14.3296 21.038 20.8382C19.7922 34.5922 32.3529 42.5208 39.9892 51.7533C43.1878 55.6207 47.2448 61.7935 45.942 67.1119C44.9036 71.3485 41.0218 72.8512 37.2185 71.5414C33.939 70.4129 31.2129 68.2136 30.9568 64.4748C30.6445 59.9358 34.5676 55.1696 36.8906 51.572C36.9048 51.5484 36.9251 51.5291 36.9492 51.5161H36.9501ZM39.43 55.259L39.4407 55.2774C36.6568 59.3829 32.5908 65.808 36.0901 69.4432C38.5998 72.0501 41.6555 67.4092 42.0462 64.8407C42.5509 61.5287 41.1416 58.1742 39.4325 55.2599H39.43V55.259Z" fill="#E3B444"/>
</g>
<defs>
<clipPath id="clip0_30_103">
<rect width="38" height="71" fill="white" transform="translate(17 1)"/>
</clipPath>
</defs>
</svg>
