<svg width="72" height="72" viewBox="0 0 72 72" fill="none" xmlns="http://www.w3.org/2000/svg">
<g clip-path="url(#clip0_30_176)">
<path fill-rule="evenodd" clip-rule="evenodd" d="M34.995 38.6063C42.241 33.3263 50.827 30.4303 59.304 27.6723C60.552 27.2663 57.903 30.9463 56.832 31.2943C48.332 34.0593 39.6 36.8443 32.534 42.5173C32.4392 42.5937 32.3425 42.6677 32.244 42.7393C32.0079 42.9995 31.755 43.2441 31.487 43.4713C31.407 43.5383 30.061 44.7523 30.601 43.8923C35.794 35.6273 38.117 26.3153 40.943 17.0893C41.361 15.7253 44.043 14.2373 44.248 13.5613C41.623 22.1353 39.383 30.7713 34.995 38.6063ZM53.911 61.4153C53.14 61.9753 54.201 65.5613 53.111 66.3523C39.023 76.5723 18.137 72.2483 7.62799 58.7873C0.817994 50.0653 1.11699 37.6273 3.67499 27.3973C7.08499 13.7593 19.193 4.48427 32.585 1.72927C48.847 -1.61473 64.044 6.74627 69.236 22.6053C72.726 33.2653 71.263 47.5693 62.805 55.6273C63.618 54.8523 62.547 51.6973 63.605 50.6903C77.282 37.6623 66.721 14.9693 51.537 8.22427C38.819 2.57427 20.462 7.02227 11.41 17.4963C5.11599 24.7793 1.75899 31.8113 3.39199 41.6763C4.68999 49.5153 8.82799 55.6593 15.23 60.3153C26.53 68.5303 42.41 69.7593 53.91 61.4153H53.911Z" fill="#E3B444"/>
</g>
<defs>
<clipPath id="clip0_30_176">
<rect width="69" height="71" fill="white" transform="translate(2 1)"/>
</clipPath>
</defs>
</svg>
