<svg width="38" height="38" viewBox="0 0 38 38" fill="none" xmlns="http://www.w3.org/2000/svg">
<g clip-path="url(#clip0_42_1685)">
<mask id="mask0_42_1685" style="mask-type:alpha" maskUnits="userSpaceOnUse" x="15" y="0" width="23" height="26">
<path d="M37.5345 0V25.0858H15.761V0H37.5345Z" fill="white"/>
</mask>
<g mask="url(#mask0_42_1685)">
<path fill-rule="evenodd" clip-rule="evenodd" d="M25.0219 3.86126C25.8912 3.34245 26.7874 2.82893 27.7516 2.50909C28.7217 2.18316 29.7638 2.1358 30.7594 2.3724C31.7384 2.59934 32.6921 3.01523 33.5693 3.50131C34.4169 3.97051 35.216 4.55898 35.8034 5.33798C36.3068 6.00727 36.6551 6.78011 36.8231 7.60056C36.9027 7.99376 36.9476 8.39223 36.9513 8.79334C36.9529 8.96065 36.9476 9.1137 36.9318 9.29104C36.9471 9.12056 36.9064 9.48843 36.9086 9.47048C36.9371 9.26465 36.8885 9.58131 36.8811 9.62195C36.9233 9.39976 36.8473 9.76445 36.8457 9.77237C36.8848 9.61034 36.7914 9.97029 36.7967 9.95129C36.7486 10.1186 36.6969 10.2695 36.6357 10.4342C36.4916 10.8195 36.3169 11.19 36.1185 11.5499C35.6535 12.3933 35.0772 13.1681 34.447 13.8948C33.1745 15.3621 27.3289 20.8061 25.5761 21.8089C23.6951 22.8845 21.2541 23.3051 19.1699 22.4791C18.3011 22.1308 17.5563 21.5305 17.0314 20.7554C16.7756 20.3824 16.5785 19.9723 16.4471 19.5394C16.3904 19.3499 16.3526 19.1553 16.3342 18.9583C16.3342 18.961 16.3231 18.7272 16.3252 18.7314C16.3764 18.8507 16.2909 19.0481 16.2577 19.1684C16.3822 18.7156 16.5596 18.1039 16.4466 17.6341C16.3432 17.2051 16.1331 17.8505 16.0962 17.9846C15.789 19.1045 15.6212 20.3258 15.9136 21.4669C16.1299 22.3087 16.5912 23.0539 17.2082 23.6614C18.6828 25.1154 20.8551 25.3434 22.7921 24.8499C24.8911 24.3153 26.6607 23.0064 28.2699 21.6083C29.8796 20.2097 31.5094 18.8005 33.0225 17.2974C34.4876 15.8418 35.7997 14.2015 36.5734 12.2693C37.3725 10.2727 37.7942 7.84704 37.363 5.71587C36.9597 3.72245 35.7142 2.25206 33.9535 1.27726C33.0004 0.749481 31.9543 0.296648 30.8797 0.092398C29.7677 -0.118713 28.6858 0.0433147 27.6445 0.46712C25.6917 1.26248 23.8592 2.5149 22.202 3.80373C20.1167 5.42526 18.2513 7.31138 16.653 9.41454C16.3838 9.76815 16.3242 10.3292 16.273 10.7577C16.2476 10.9715 16.2028 11.2285 16.2529 11.4386C16.264 11.485 16.3025 11.6961 16.3922 11.5784C18.7504 8.47945 21.6794 5.86002 25.0214 3.86126H25.0219Z" fill="#E3B444"/>
</g>
<mask id="mask1_42_1685" style="mask-type:alpha" maskUnits="userSpaceOnUse" x="0" y="12" width="22" height="26">
<path d="M0.0912752 37.754L0.0912752 12.6682L21.8647 12.6682L21.8647 37.754H0.0912752Z" fill="white"/>
</mask>
<g mask="url(#mask1_42_1685)">
<path fill-rule="evenodd" clip-rule="evenodd" d="M12.6038 33.8928C11.7345 34.4116 10.8384 34.9251 9.87413 35.2449C8.90403 35.5709 7.86198 35.6182 6.86632 35.3816C5.88729 35.1547 4.9336 34.7388 4.05643 34.2527C3.20882 33.7835 2.40977 33.195 1.82235 32.416C1.31894 31.7468 0.970646 30.9739 0.802681 30.1535C0.722987 29.7603 0.678126 29.3618 0.674431 28.9607C0.672848 28.7934 0.678127 28.6403 0.69396 28.463C0.678655 28.6335 0.719293 28.2656 0.717182 28.2835C0.688682 28.4894 0.737238 28.1727 0.744627 28.1321C0.702405 28.3543 0.778404 27.9896 0.779987 27.9817C0.740932 28.1437 0.834349 27.7837 0.829072 27.8027C0.877099 27.6354 0.928822 27.4845 0.990044 27.3198C1.13413 26.9345 1.30882 26.564 1.50727 26.2041C1.97224 25.3607 2.54857 24.5859 3.17874 23.8592C4.45121 22.392 5.93585 21.1306 7.3809 19.8402C8.87715 18.5038 10.3449 17.0947 12.0982 16.0924C13.9792 15.0163 16.3716 14.4489 18.4558 15.2754C19.3246 15.6236 20.0694 16.2237 20.5943 16.9986C20.8502 17.3717 21.0472 17.7818 21.1786 18.2146C21.2353 18.4041 21.2731 18.5987 21.2915 18.7957C21.2915 18.793 21.3026 19.0269 21.3005 19.0226C21.2493 18.9034 21.3348 18.706 21.3681 18.5856C21.2435 19.0385 21.0662 19.6502 21.1791 20.1199C21.2826 20.549 21.4926 19.9035 21.5296 19.7694C21.8367 18.6495 22.0046 17.4282 21.7122 16.2872C21.4958 15.4454 21.0345 14.7001 20.4175 14.0927C18.9429 12.6386 16.7706 12.4106 14.8337 12.9041C12.7347 13.4387 10.965 14.7476 9.35585 16.1457C7.74613 17.5443 6.11635 18.9535 4.60321 20.4566C3.1381 21.9122 1.82604 23.5525 1.05232 25.4847C0.253266 27.4813 -0.168429 29.907 0.262765 32.0382C0.665987 34.0316 1.91154 35.502 3.67221 36.4768C4.62538 37.0045 5.67143 37.4574 6.74599 37.6616C7.85801 37.8727 8.93996 37.7107 9.98126 37.2869C11.934 36.4915 13.7665 35.2391 15.4237 33.9503C17.509 32.3288 19.3744 30.4426 20.9728 28.3395C21.2419 27.9859 21.3016 27.4249 21.3528 26.9963C21.3781 26.7825 21.423 26.5255 21.3728 26.3155C21.3617 26.269 21.3232 26.0579 21.2335 26.1756C18.8754 29.2746 15.9464 31.894 12.6043 33.8928H12.6038Z" fill="#E3B444"/>
</g>
</g>
<defs>
<clipPath id="clip0_42_1685">
<rect width="38" height="38" fill="white"/>
</clipPath>
</defs>
</svg>
