<svg width="72" height="72" viewBox="0 0 72 72" fill="none" xmlns="http://www.w3.org/2000/svg">
<g clip-path="url(#clip0_30_137)">
<path d="M37.045 1.45C36.506 0.85 35.47 0.85 34.931 1.45C34.343 2.106 29.493 12.935 22.554 23.2C17 31.411 9 38.567 9 45.011C9 59.894 21.106 72 35.988 72C44.716 72 51.602 67.705 56.538 61.258C60.018 56.714 62.976 51.165 62.976 45.012C62.976 39.307 56.98 31.752 52.244 24.345C44.944 12.928 37.687 2.167 37.044 1.451L37.045 1.45ZM36.1 67.994C23.105 67.994 12.533 57.422 12.533 44.426C12.533 38.759 17.359 30.846 22.553 23.2C27.934 15.283 33.726 7.685 36.1 4.94C38.32 7.505 42.109 14.941 47.201 22.235C52.82 30.282 59.668 38.373 59.668 44.426C59.668 50.451 57.845 55.699 54.113 59.87C49.794 64.696 43.071 67.994 36.1 67.994Z" fill="#E3B444"/>
</g>
<defs>
<clipPath id="clip0_30_137">
<rect width="54" height="71" fill="white" transform="translate(9 1)"/>
</clipPath>
</defs>
</svg>
